<svg id="svg" version="1.1" xmlns="http://www.w3.org/2000/svg" xmlns:xlink="http://www.w3.org/1999/xlink" width="400" height="250" viewBox="0, 0, 400,250"><g id="svgg"><path id="path0" d="M131.000 80.000 L 131.000 97.400 141.400 97.400 L 151.800 97.400 151.800 86.400 L 151.800 75.400 191.950 75.408 L 232.100 75.416 231.471 75.958 C 231.126 76.256,207.839 95.850,179.723 119.500 L 128.604 162.500 128.602 169.950 L 128.600 177.400 194.900 177.400 L 261.200 177.400 261.200 160.300 L 261.200 143.200 250.800 143.200 L 240.400 143.200 240.400 153.800 L 240.400 164.400 198.557 164.400 C 163.264 164.400,156.760 164.357,157.007 164.128 C 157.168 163.978,179.957 144.760,207.650 121.420 L 258.000 78.984 258.000 70.792 L 258.000 62.600 194.500 62.600 L 131.000 62.600 131.000 80.000 M265.800 75.358 L 265.800 82.517 221.357 120.208 C 196.914 140.939,176.686 158.101,176.407 158.347 L 175.900 158.795 178.736 158.747 L 181.572 158.700 225.479 121.400 L 269.387 84.100 269.393 76.150 L 269.400 68.200 267.600 68.200 L 265.800 68.200 265.800 75.358 M158.533 81.933 C 158.460 82.007,158.400 87.002,158.400 93.033 L 158.400 104.000 147.500 104.000 L 136.600 104.000 136.600 105.700 L 136.600 107.400 149.400 107.400 L 162.200 107.400 162.200 96.300 L 162.200 85.200 187.526 85.200 L 212.851 85.200 214.576 83.769 C 215.524 82.981,216.432 82.216,216.593 82.069 C 216.838 81.844,212.151 81.800,187.776 81.800 C 171.766 81.800,158.607 81.860,158.533 81.933 M267.800 166.200 L 267.800 184.000 201.000 184.000 L 134.200 184.000 134.200 185.700 L 134.200 187.400 202.800 187.400 L 271.400 187.400 271.400 167.900 L 271.400 148.400 269.600 148.400 L 267.800 148.400 267.800 166.200 " stroke="none" fill="#fbfafa" fill-rule="evenodd"></path><path id="path1" d="M192.300 0.120 C 191.860 0.162,190.330 0.294,188.900 0.413 C 132.525 5.133,85.816 48.387,76.607 104.400 C 64.028 180.908,122.582 249.998,200.000 249.998 C 282.845 249.998,342.693 171.166,320.496 91.280 C 306.611 41.309,264.145 5.928,211.400 0.384 C 209.402 0.174,193.986 -0.039,192.300 0.120 M258.200 70.675 L 258.200 78.949 208.057 121.225 C 180.479 144.476,157.686 163.700,157.407 163.944 L 156.900 164.387 198.650 164.394 L 240.400 164.400 240.400 153.698 L 240.400 142.996 250.750 143.048 L 261.100 143.100 261.151 160.350 L 261.202 177.600 194.799 177.600 L 128.395 177.600 128.448 170.033 L 128.500 162.466 179.700 119.411 C 207.860 95.731,231.123 76.142,231.395 75.878 L 231.891 75.400 191.845 75.400 L 151.800 75.400 151.800 86.400 L 151.800 97.400 141.400 97.400 L 131.000 97.400 131.000 79.900 L 131.000 62.400 194.600 62.400 L 258.200 62.400 258.200 70.675 M269.400 76.096 L 269.400 84.192 225.389 121.596 L 181.377 159.000 178.572 159.000 C 176.952 159.000,175.795 158.922,175.833 158.816 C 175.870 158.715,196.082 141.515,220.750 120.594 L 265.600 82.556 265.600 75.278 L 265.600 68.000 267.500 68.000 L 269.400 68.000 269.400 76.096 M216.983 81.878 C 216.937 81.921,215.969 82.731,214.832 83.678 L 212.763 85.400 187.482 85.400 L 162.200 85.400 162.200 96.400 L 162.200 107.400 149.400 107.400 L 136.600 107.400 136.600 105.600 L 136.600 103.800 147.500 103.800 L 158.400 103.800 158.400 92.800 L 158.400 81.800 187.733 81.800 C 203.867 81.800,217.029 81.835,216.983 81.878 M271.551 167.950 L 271.602 187.600 202.801 187.600 L 134.000 187.600 134.000 185.800 L 134.000 184.000 200.900 184.000 L 267.800 184.000 267.800 166.092 L 267.800 148.185 269.650 148.242 L 271.500 148.300 271.551 167.950 " stroke="none" fill="#ec2444" fill-rule="evenodd"></path><path id="path2" d="M194.498 62.550 L 257.996 62.601 258.051 70.750 L 258.107 78.900 258.103 70.700 L 258.100 62.500 194.550 62.500 L 131.000 62.499 194.498 62.550 M271.496 167.900 C 271.496 178.680,271.520 183.061,271.550 177.635 C 271.580 172.209,271.580 163.389,271.550 158.035 C 271.520 152.681,271.496 157.120,271.496 167.900 M128.491 170.000 C 128.491 174.125,128.517 175.813,128.550 173.750 C 128.582 171.688,128.582 168.313,128.550 166.250 C 128.517 164.188,128.491 165.875,128.491 170.000 " stroke="none" fill="#f48c9c" fill-rule="evenodd"></path><path id="path3" d="M245.564 143.150 C 248.459 143.181,253.139 143.181,255.964 143.150 C 258.789 143.119,256.420 143.093,250.700 143.093 C 244.980 143.093,242.669 143.119,245.564 143.150 M268.650 148.347 C 269.173 148.388,270.028 148.388,270.550 148.347 C 271.072 148.306,270.645 148.272,269.600 148.272 C 268.555 148.272,268.127 148.306,268.650 148.347 M177.150 158.949 C 177.947 158.986,179.253 158.986,180.050 158.949 C 180.847 158.911,180.195 158.879,178.600 158.879 C 177.005 158.879,176.353 158.911,177.150 158.949 " stroke="none" fill="#f46e84" fill-rule="evenodd"></path><path id="path4" d="M265.691 68.251 C 265.638 68.389,265.620 71.697,265.650 75.601 L 265.705 82.700 265.753 75.458 L 265.800 68.215 267.650 68.149 L 269.500 68.083 267.644 68.042 C 266.307 68.012,265.760 68.070,265.691 68.251 M174.866 85.350 C 181.887 85.379,193.317 85.379,200.266 85.350 C 207.214 85.321,201.470 85.297,187.500 85.297 C 173.530 85.297,167.844 85.321,174.866 85.350 M142.064 103.950 C 145.124 103.981,150.074 103.981,153.064 103.950 C 156.054 103.919,153.550 103.893,147.500 103.893 C 141.450 103.893,139.004 103.919,142.064 103.950 M161.650 177.550 C 179.883 177.578,209.718 177.578,227.950 177.550 C 246.183 177.522,231.265 177.499,194.800 177.499 C 158.335 177.499,143.418 177.522,161.650 177.550 M134.087 185.700 L 134.100 187.500 202.700 187.500 L 271.300 187.501 202.758 187.450 L 134.216 187.399 134.145 185.650 L 134.074 183.900 134.087 185.700 " stroke="none" fill="#f494a4" fill-rule="evenodd"></path></g></svg>